<svg xmlns="http://www.w3.org/2000/svg" viewBox="0 0 270 256" width="256" height="270">
<style>
/* latin */
@font-face {
  font-family: 'Open Sans';
  font-style: normal;
  font-weight: 400;
  font-display: swap;
  src: url(https://fonts.gstatic.com/s/opensans/v18/mem8YaGs126MiZpBA-UFVZ0b.woff2) format('woff2');
  unicode-range: U+0000-00FF, U+0131, U+0152-0153, U+02BB-02BC, U+02C6, U+02DA, U+02DC, U+2000-206F, U+2074, U+20AC, U+2122, U+2191, U+2193, U+2212, U+2215, U+FEFF, U+FFFD;
}
</style>
<g>
  <circle cx="91" cy="85" r="90" stroke="none" stroke-width="3" fill="pink"/>
  <g>
    <circle cx="52" cy="40" r="15" stroke="none" fill="white"/>
    <circle cx="54" cy="40" r="10" stroke="none" fill="black"/>
  </g>
  <g transform="translate(75) rotate(180,52,40)">
    <circle cx="52" cy="40" r="15" stroke="none" fill="white"/>
    <circle cx="54" cy="40" r="10" stroke="none" fill="black"/>
  </g>
  <!-- ég gerði þessa sjálf wööp -->
  <path d="M80 50c5,5 15,5 20,0" fill="none" stroke="#000000" stroke-width="4.5" stroke-linecap="round"/>
  <!-- öll tentaclein right to left -->
  <path d="M164 90c-6 33-7 30 -1 76 4 27-2 31-2 53 1 26 4 33 4 33" fill="none" stroke="#000000" stroke-width="4.5" stroke-linecap="round" id="tent5"/>
  <path d="M125 92s4 10 5 33c3 23-4 41-3 69s5 39 0 60" fill="none" stroke="#000000" stroke-width="4.5" stroke-linecap="round" id="tent4"/>
  <path d="M85 90c7 41 5 72 3 95-2 31-2 68-2 68" fill="none" stroke="#000000" stroke-width="4.5" stroke-linecap="round" id="tent3"/>
  <path d="M51 90c-5 30 0 50-1 79-1 43-5 52-2 84" fill="none" stroke="#000000" stroke-width="4.5" stroke-linecap="round" id="tent2"/>
  <path d="M18 90c1 35-2 35-1 59s4 41 3 55l-1 48" fill="none" stroke="#000000" stroke-width="4.5" stroke-linecap="round" id="tent1"/>
  <!-- aðal body-ið -->
  <path d="M9 76c1-5 7-73 84-73s79 69 80 75c0 16-18 14-20 1-2-12-19-10-18 2 0 12-19 14-20 0 0-15-20-14-20-1-1 13-19 13-19 0-1-13-16-13-17 0 0 13-17 13-17 0 0-12-15-13-16 0 0 12-19 14-17-4z" fill="none" stroke="#000000" stroke-width="4.5" stroke-linecap="round"/>
</g>
  <text x="-250" y="240" transform="rotate(270)" font-size="68" font-family="'Open Sans', sans-serif">
    blubb.
  </text>
</svg>
